<svg width="200" height="200" viewBox="0 0 200 200" xmlns="http://www.w3.org/2000/svg">
  <!-- Background circle with gradient -->
  <defs>
    <linearGradient id="bgGradient" x1="0%" y1="0%" x2="100%" y2="100%">
      <stop offset="0%" style="stop-color:#0a0a0a;stop-opacity:1" />
      <stop offset="50%" style="stop-color:#1a1a2e;stop-opacity:1" />
      <stop offset="100%" style="stop-color:#16213e;stop-opacity:1" />
    </linearGradient>
    <linearGradient id="textGradient" x1="0%" y1="0%" x2="100%" y2="100%">
      <stop offset="0%" style="stop-color:#00ffff;stop-opacity:1" />
      <stop offset="100%" style="stop-color:#ff0080;stop-opacity:1" />
    </linearGradient>
    <filter id="glow">
      <feGaussianBlur stdDeviation="3" result="coloredBlur"/>
      <feMerge> 
        <feMergeNode in="coloredBlur"/>
        <feMergeNode in="SourceGraphic"/>
      </feMerge>
    </filter>
  </defs>
  
  <!-- Background -->
  <circle cx="100" cy="100" r="100" fill="url(#bgGradient)"/>
  
  <!-- Grid pattern -->
  <pattern id="grid" width="20" height="20" patternUnits="userSpaceOnUse">
    <path d="M 20 0 L 0 0 0 20" fill="none" stroke="#00ffff" stroke-width="0.5" opacity="0.3"/>
  </pattern>
  <circle cx="100" cy="100" r="95" fill="url(#grid)"/>
  
  <!-- Large "7" -->
  <text x="100" y="120" font-family="Courier New, monospace" font-size="80" font-weight="bold" 
        text-anchor="middle" fill="url(#textGradient)" filter="url(#glow)">7</text>
  
  <!-- "PHASE" text -->
  <text x="100" y="150" font-family="Courier New, monospace" font-size="14" font-weight="bold" 
        text-anchor="middle" fill="#00ffff" opacity="0.8">PHASE</text>
  
  <!-- Accent lines -->
  <line x1="30" y1="100" x2="70" y2="100" stroke="#00ffff" stroke-width="2" opacity="0.6"/>
  <line x1="130" y1="100" x2="170" y2="100" stroke="#ff0080" stroke-width="2" opacity="0.6"/>
  
  <!-- Corner brackets -->
  <path d="M 20 20 L 20 40 M 20 20 L 40 20" stroke="#00ffff" stroke-width="2" fill="none" opacity="0.7"/>
  <path d="M 180 20 L 180 40 M 180 20 L 160 20" stroke="#00ffff" stroke-width="2" fill="none" opacity="0.7"/>
  <path d="M 20 180 L 20 160 M 20 180 L 40 180" stroke="#ff0080" stroke-width="2" fill="none" opacity="0.7"/>
  <path d="M 180 180 L 180 160 M 180 180 L 160 180" stroke="#ff0080" stroke-width="2" fill="none" opacity="0.7"/>
</svg>
